<?xml version="1.0" encoding="UTF-8"?>
<svg version="1.1" xmlns="http://www.w3.org/2000/svg" width="512" height="512">
<path d="M0 0 C0.90186035 0.17692383 1.8037207 0.35384766 2.73291016 0.53613281 C9.20599895 1.83501287 15.60888488 3.34657126 22 5 C22.82000488 5.20963379 23.64000977 5.41926758 24.48486328 5.63525391 C58.17024255 14.44485883 88.96649009 31.29229379 116 53 C117.50046875 54.19109375 117.50046875 54.19109375 119.03125 55.40625 C132.89778302 66.7515952 146.2899831 79.6029281 157 94 C157.45971191 94.59973633 157.91942383 95.19947266 158.39306641 95.81738281 C183.7457788 128.9479423 200.63105558 166.93602242 208 208 C208.16226074 208.83128418 208.32452148 209.66256836 208.49169922 210.51904297 C213.76694663 238.13651472 213.55756833 270.45402542 208 298 C207.82307617 298.90186035 207.64615234 299.8037207 207.46386719 300.73291016 C206.16498713 307.20599895 204.65342874 313.60888488 203 320 C202.79036621 320.82000488 202.58073242 321.64000977 202.36474609 322.48486328 C193.55514117 356.17024255 176.70770621 386.96649009 155 414 C154.2059375 415.0003125 153.411875 416.000625 152.59375 417.03125 C141.2484048 430.89778302 128.3970719 444.2899831 114 455 C113.10039551 455.68956787 113.10039551 455.68956787 112.18261719 456.39306641 C79.0520577 481.7457788 41.06397758 498.63105558 0 506 C-0.83128418 506.16226074 -1.66256836 506.32452148 -2.51904297 506.49169922 C-30.13651472 511.76694663 -62.45402542 511.55756833 -90 506 C-90.90186035 505.82307617 -91.8037207 505.64615234 -92.73291016 505.46386719 C-99.20599895 504.16498713 -105.60888488 502.65342874 -112 501 C-112.82000488 500.79036621 -113.64000977 500.58073242 -114.48486328 500.36474609 C-148.17024255 491.55514117 -178.96649009 474.70770621 -206 453 C-207.0003125 452.2059375 -208.000625 451.411875 -209.03125 450.59375 C-222.89778302 439.2484048 -236.2899831 426.3970719 -247 412 C-247.68956787 411.10039551 -247.68956787 411.10039551 -248.39306641 410.18261719 C-273.7457788 377.0520577 -290.63105558 339.06397758 -298 298 C-298.16226074 297.16871582 -298.32452148 296.33743164 -298.49169922 295.48095703 C-303.76694663 267.86348528 -303.55756833 235.54597458 -298 208 C-297.82307617 207.09813965 -297.64615234 206.1962793 -297.46386719 205.26708984 C-296.16498713 198.79400105 -294.65342874 192.39111512 -293 186 C-292.79036621 185.17999512 -292.58073242 184.35999023 -292.36474609 183.51513672 C-283.55514117 149.82975745 -266.70770621 119.03350991 -245 92 C-244.2059375 90.9996875 -243.411875 89.999375 -242.59375 88.96875 C-231.2484048 75.10221698 -218.3970719 61.7100169 -204 51 C-203.40026367 50.54028809 -202.80052734 50.08057617 -202.18261719 49.60693359 C-169.0520577 24.2542212 -131.06397758 7.36894442 -90 0 C-89.16871582 -0.16226074 -88.33743164 -0.32452148 -87.48095703 -0.49169922 C-59.86348528 -5.76694663 -27.54597458 -5.55756833 0 0 Z " fill="#FCFCFC" transform="translate(301,3)"/>
<path d="M0 0 C0.66 0 1.32 0 2 0 C3.81608488 4.03790708 5.63082082 8.07641687 7.44433594 12.11547852 C8.06083176 13.48803887 8.67768907 14.86043692 9.29492188 16.23266602 C10.18455694 18.21066913 11.07286934 20.18926173 11.9609375 22.16796875 C12.49509277 23.35672607 13.02924805 24.5454834 13.57958984 25.77026367 C17.20863397 34.02200391 17.20863397 34.02200391 16.6875 39 C16.54101224 42.7476805 16.54101224 42.7476805 18.55078125 45.7578125 C20.69199737 47.31762286 20.69199737 47.31762286 24 49 C24.78375 48.505 25.5675 48.01 26.375 47.5 C29 46 29 46 31 46 C30.773125 44.700625 30.54625 43.40125 30.3125 42.0625 C30.31787453 38.61204861 30.64706919 37.37945162 33.02734375 34.8203125 C34.91299601 33.34317314 36.82540562 31.8998003 38.7578125 30.484375 C42.99797402 27.36059076 46.5476722 23.58203546 50.20214844 19.80932617 C51.45329313 18.5249597 52.7246934 17.26037826 54 16 C54.33 16 54.66 16 55 16 C55.67908897 19.8103935 56.34097063 23.62359019 57 27.4375 C57.19078125 28.50677734 57.3815625 29.57605469 57.578125 30.67773438 C60.07850793 45.27818469 60.07850793 45.27818469 58.3984375 51.07592773 C57.74342074 53.21620709 57.74342074 53.21620709 59.4375 55.75 C59.953125 56.4925 60.46875 57.235 61 58 C63.91630113 58.05749557 63.91630113 58.05749557 67 57 C67.7195786 55.26646974 68.43130719 53.52786871 69.05566406 51.7578125 C70.80953365 48.49311213 74.74097552 47.46727378 78 46 C79.62347388 45.22752203 81.24584445 44.45272164 82.8671875 43.67578125 C84.53603836 42.88713151 86.20531336 42.09937872 87.875 41.3125 C89.55997709 40.51709919 91.24487679 39.72153441 92.9296875 38.92578125 C93.66429199 38.57942627 94.39889648 38.23307129 95.15576172 37.8762207 C96.44367679 37.26431612 97.7246483 36.63767585 99 36 C97.05476358 41.90880791 95.03349175 47.78401585 92.92578125 53.63671875 C92.64070206 54.43115387 92.35562286 55.22558899 92.06190491 56.0440979 C90.517023 60.34692715 88.96643196 64.64768901 87.41455078 68.94799805 C86.78543248 70.69187675 86.1563631 72.4357731 85.52734375 74.1796875 C85.21955994 75.03256851 84.91177612 75.88544952 84.59466553 76.76417542 C82.8435063 81.62608279 81.12466925 86.49699118 79.44140625 91.3828125 C79.08328857 92.40930908 78.7251709 93.43580566 78.35620117 94.4934082 C77.72092304 96.31862757 77.09664186 98.14772724 76.4855957 99.98120117 C74.46590362 105.7281057 74.46590362 105.7281057 71.89697266 107.22729492 C71.27097168 107.4822876 70.6449707 107.73728027 70 108 C70.25692627 108.52843506 70.51385254 109.05687012 70.77856445 109.60131836 C71.96221354 112.04400989 73.13737799 114.49069557 74.3125 116.9375 C74.91868164 118.18370117 74.91868164 118.18370117 75.53710938 119.45507812 C81.4354073 131.77916404 83.16342678 142.28133072 83.0625 155.9375 C83.05798828 157.09830078 83.05347656 158.25910156 83.04882812 159.45507812 C83.03710647 162.30343934 83.0206976 165.15169222 83 168 C84.98 168.99 86.96 169.98 89 171 C89.51960837 149.78399058 89.52400841 131.57909536 80 112 C79.67 111.67 79.34 111.34 79 111 C78.8125 108.0625 78.8125 108.0625 79 105 C81 103 81 103 83.37109375 102.93359375 C87.25786818 104.51024965 88.37137345 107.44533313 90.0625 111.0625 C90.40611572 111.7740625 90.74973145 112.485625 91.10375977 113.21875 C100.35899882 133.20918804 102.53912875 158.9660478 95.31591797 179.99121094 C83.61297278 210.91233884 60.99182626 236.89936848 39 261 C38.2059375 261.886875 37.411875 262.77375 36.59375 263.6875 C28.38853127 272.78244125 19.70949414 281.39022704 11 290 C12.56282715 290.08918701 12.56282715 290.08918701 14.15722656 290.18017578 C35.23138942 291.41168728 56.14774642 293.15632049 77.0625 296.0625 C78.00202515 296.19215149 78.94155029 296.32180298 79.9095459 296.4553833 C82.59825165 296.82946051 85.28570913 297.21116307 87.97265625 297.59765625 C89.1468084 297.76478371 89.1468084 297.76478371 90.34468079 297.93528748 C95.62419014 298.71631667 100.80517123 299.77882524 106 301 C106 301.33 106 301.66 106 302 C35.71 302 -34.58 302 -107 302 C-103.05023701 300.02511851 -100.31247747 299.42388943 -95.98828125 298.78125 C-95.30179001 298.67784302 -94.61529877 298.57443604 -93.90800476 298.46789551 C-92.45013294 298.24963957 -90.99176597 298.03466922 -89.53295898 297.82275391 C-87.36394013 297.50747706 -85.19657352 297.18248313 -83.02929688 296.85546875 C-66.65578488 294.40787348 -50.41504687 292.70373754 -33.875 291.9375 C-31.42191817 291.82099799 -28.96895692 291.70273693 -26.5161438 291.58070374 C-25.01034796 291.50603447 -23.50439007 291.43453231 -21.9982605 291.3669281 C-17.60278927 291.15201471 -13.3406281 290.68396272 -9 290 C-9.66008057 289.34515625 -10.32016113 288.6903125 -11.00024414 288.015625 C-13.48296466 285.55009874 -15.96330192 283.08222166 -18.44213867 280.61279297 C-19.50892297 279.55099139 -20.57660853 278.49009442 -21.64526367 277.43017578 C-27.11584645 272.00315268 -32.5269889 266.57263901 -37.53491211 260.70800781 C-39.6946828 258.19013483 -41.97894036 255.79235489 -44.25 253.375 C-49.70073423 247.48432577 -54.65632749 241.27789844 -59.53027344 234.90673828 C-61.06790892 232.91189889 -62.629624 230.93772424 -64.1953125 228.96484375 C-85.54866035 201.86702415 -100.88434071 173.10365969 -96.71582031 137.578125 C-94.81605969 125.92490164 -90.61367992 112.18732805 -83 103 C-78.125 103.875 -78.125 103.875 -77 105 C-77.20670622 109.65088991 -78.43056557 113.18722347 -80.3125 117.4375 C-87.82362163 135.29824853 -87.46618966 151.96511767 -87 171 C-85.02 170.01 -83.04 169.02 -81 168 C-81.02094727 167.33170166 -81.04189453 166.66340332 -81.06347656 165.97485352 C-81.61757533 145.5345709 -79.95929766 129.93164185 -70 112 C-69.32551207 110.67060606 -68.65496841 109.33911859 -68 108 C-68.92493759 107.89916611 -68.92493759 107.89916611 -69.86856079 107.79629517 C-72 107 -72 107 -73.16195679 104.96859741 C-73.47251007 104.07452179 -73.78306335 103.18044617 -74.10302734 102.25927734 C-74.46375336 101.2466684 -74.82447937 100.23405945 -75.19613647 99.19076538 C-75.57227081 98.08367218 -75.94840515 96.97657898 -76.3359375 95.8359375 C-76.73777252 94.69653717 -77.13960754 93.55713684 -77.55361938 92.38320923 C-78.84266432 88.71894174 -80.1094976 85.0474572 -81.375 81.375 C-82.63499841 77.76203903 -83.89956942 74.15071121 -85.16558838 70.53985596 C-85.98260584 68.20950163 -86.79753269 65.8784132 -87.61029053 63.54656982 C-90.21370717 56.11083847 -92.98195565 48.78013124 -96.02587891 41.51416016 C-97 39 -97 39 -97 37 C-90.13173756 39.12112774 -83.59503128 41.75687956 -77.0625 44.75 C-76.11826172 45.15476563 -75.17402344 45.55953125 -74.20117188 45.9765625 C-67.54020696 49.04718627 -67.54020696 49.04718627 -65.92919922 51.88867188 C-65.37109375 53.828125 -65.37109375 53.828125 -65 57 C-62.03 57.495 -62.03 57.495 -59 58 C-57.28184562 55.74832154 -57.28184562 55.74832154 -56 53 C-56.63343426 51.65056187 -57.30374377 50.31812347 -58 49 C-58.83295444 42.29379865 -57.5559751 35.32517342 -56.625 28.6875 C-56.49867188 27.71232422 -56.37234375 26.73714844 -56.2421875 25.73242188 C-56.11328125 24.79333984 -55.984375 23.85425781 -55.8515625 22.88671875 C-55.73635254 22.04326904 -55.62114258 21.19981934 -55.50244141 20.33081055 C-54.98936577 17.95066811 -54.18329608 16.1179108 -53 14 C-52.45472656 14.70125 -51.90945312 15.4025 -51.34765625 16.125 C-43.00773814 26.62822713 -43.00773814 26.62822713 -32.265625 34.47265625 C-31.51796875 34.97667969 -30.7703125 35.48070312 -30 36 C-29.74404743 38.01562652 -29.49392848 40.03464431 -29.3671875 42.0625 C-29.12374853 44.32188757 -29.12374853 44.32188757 -26.625 46.4375 C-24.03012508 48.1085716 -24.03012508 48.1085716 -21 49 C-17.98415864 47.13305059 -16.31117792 45.88907979 -15.125 42.5 C-14.86333206 40.06563783 -14.86333206 40.06563783 -15.57688904 38.07867432 C-16.33374434 34.36036914 -14.13765935 31.05950128 -12.59765625 27.734375 C-12.24110458 26.94097717 -11.88455292 26.14757935 -11.51719666 25.33013916 C-10.37642767 22.79838046 -9.2197362 20.27426796 -8.0625 17.75 C-7.28604929 16.03433353 -6.51064562 14.31819279 -5.73632812 12.6015625 C-3.83632256 8.39544291 -1.92200529 4.19610955 0 0 Z " fill="#0C1831" transform="translate(255,56)"/>
<path d="M0 0 C87.78 0 175.56 0 266 0 C262 45 262 45 260 65 C248.65132892 69.75912013 241.63727878 72.31546221 229.6875 68.75 C218.56447024 65.62342434 207.27293023 64.00397022 195.84716797 62.40234375 C193.46921018 62.06630581 191.09555647 61.71340071 188.72265625 61.34375 C175.77841167 59.36352811 162.85053221 58.83219835 149.76953125 58.76171875 C149.06991838 58.75681238 148.37030552 58.75190601 147.64949226 58.74685097 C110.04667414 58.48611977 74.10112551 58.99063442 37.44677734 68.4453125 C27.98450148 70.85328107 20.74176923 71.9774703 11.5 68 C10.6646875 67.649375 9.829375 67.29875 8.96875 66.9375 C7 66 7 66 6 65 C5.76439645 63.3024219 5.59118698 61.59613416 5.44335938 59.88867188 C5.34655884 58.79663452 5.2497583 57.70459717 5.15002441 56.57946777 C5.04895386 55.38793091 4.9478833 54.19639404 4.84375 52.96875 C4.7365564 51.74853149 4.62936279 50.52831299 4.5189209 49.27111816 C4.2333653 46.01316474 3.95160226 42.75491288 3.67181396 39.49645996 C3.27929661 34.93545014 2.87995755 30.37503225 2.4810791 25.8145752 C2.26917021 23.387219 2.05873323 20.95973373 1.84997559 18.53210449 C1.75317505 17.41484985 1.65637451 16.29759521 1.55664062 15.14648438 C1.47305298 14.1746521 1.38946533 13.20281982 1.30334473 12.20153809 C0.91751649 8.12945879 0.45169995 4.06529955 0 0 Z " fill="#0D1930" transform="translate(123,362)"/>
<path d="M0 0 C0.33 0 0.66 0 1 0 C1 17.49 1 34.98 1 53 C-7.415 53.495 -7.415 53.495 -16 54 C-20.19044118 54.61311171 -24.24368047 55.2654179 -28.375 56.125 C-29.42864746 56.33946777 -30.48229492 56.55393555 -31.56787109 56.77490234 C-43.94513891 59.43452696 -55.42210697 63.98595184 -67 69 C-67 69.99 -67 70.98 -67 72 C-63.29589115 70.57117556 -59.75640441 68.92384759 -56.1875 67.1875 C-23.14809195 51.91562029 13.78529625 51.46918386 48 63 C54.85830061 65.58407094 61.4670584 68.6847759 68 72 C68 71.01 68 70.02 68 69 C57.52529867 64.16659394 47.08491551 60.19870567 36 57 C36 56.34 36 55.68 36 55 C35.01 55 34.02 55 33 55 C33 54.34 33 53.68 33 53 C39.93 53.495 39.93 53.495 47 54 C47.18112779 48.92842187 46.81451828 44.83420234 45.4453125 39.96484375 C44.75767071 36.93077513 44.87086141 34.09932621 45 31 C44.319375 31.680625 43.63875 32.36125 42.9375 33.0625 C42.47601563 33.51753906 42.01453125 33.97257812 41.5390625 34.44140625 C40.48666706 35.50715696 39.46135894 36.60016098 38.4609375 37.71484375 C34.07720783 42.46215289 29.21358095 46.00166241 23 48 C20.8125 47.77734375 20.8125 47.77734375 19 47 C17.1875 44.5625 17.1875 44.5625 16 42 C16.495 41.01 16.495 41.01 17 40 C17.66 40.66 18.32 41.32 19 42 C26.67972288 41.6988344 31.74353545 38.59124634 36.875 33.1875 C39.32545879 30.27825488 39.96407667 29.26044414 40.5 25.375 C41.15360795 20.96314637 42.93653415 19.76264597 46.30859375 17.06640625 C48 16 48 16 50 16 C50.19401633 17.81181405 50.38004375 19.62448532 50.5625 21.4375 C50.66691406 22.44683594 50.77132812 23.45617187 50.87890625 24.49609375 C50.91886719 25.32238281 50.95882812 26.14867188 51 27 C50.67 27.33 50.34 27.66 50 28 C49.04052156 35.6443692 50.86488281 42.06245152 54 49 C55.12830857 50.33886622 55.12830857 50.33886622 58.0625 50.3125 C64.11681925 49.83199847 68.81291112 47.71067086 72.8125 43.0625 C75.02056815 40.18075279 75.02056815 40.18075279 76.1875 37.375 C79.12580894 33.52480208 83.51242068 32.50708574 88 31 C85.98761595 37.18801616 83.81412914 43.29527695 81.49609375 49.375 C81.17214127 50.22553955 80.84818878 51.0760791 80.51441956 51.95239258 C79.83570427 53.73090424 79.15583616 55.50897636 78.47485352 57.28662109 C77.43057836 60.01810477 76.39598758 62.75314321 75.36132812 65.48828125 C74.69851147 67.22158174 74.03512092 68.9546629 73.37109375 70.6875 C73.06272079 71.50718262 72.75434784 72.32686523 72.43663025 73.17138672 C70.22837719 78.88581141 70.22837719 78.88581141 68 80 C65.469967 78.87655575 63.0274364 77.69063795 60.5625 76.4375 C27.50518862 60.32276826 -9.68260535 58.33284684 -44.4753418 70.15478516 C-51.0906115 72.51858178 -57.30279417 75.38051168 -63.48046875 78.71484375 C-66 80 -66 80 -68 80 C-68.47421387 78.78417236 -68.94842773 77.56834473 -69.43701172 76.31567383 C-71.19981636 71.79622099 -72.96290311 67.27687824 -74.72607422 62.75756836 C-75.48852078 60.80317123 -76.25089129 58.84874442 -77.01318359 56.89428711 C-78.11015044 54.08178998 -79.20739257 51.26940039 -80.3046875 48.45703125 C-80.6443454 47.58601273 -80.9840033 46.7149942 -81.33395386 45.81758118 C-81.65413483 44.997108 -81.9743158 44.17663483 -82.30419922 43.33129883 C-82.74575348 42.19055405 -82.74575348 42.19055405 -83.19622803 41.02676392 C-83.85461367 39.36660119 -84.56671492 37.72783305 -85.29345703 36.09643555 C-86 34 -86 34 -85 31 C-78.53636591 33.74067787 -74.85159902 35.34626895 -72 42 C-67.79561795 46.38129911 -63.22046988 50.23169945 -56.9375 50.4375 C-52.98243486 50.43727134 -52.98243486 50.43727134 -51.125 47.9375 C-48.71644178 41.64848687 -47.10872443 35.76320876 -48 29 C-48.66 28.01 -49.32 27.02 -50 26 C-49.68372903 22.45776514 -49.12451909 19.37355726 -48 16 C-45.02158727 17.38283448 -42.33197257 18.66802743 -40 21 C-39.9175 22.03125 -39.835 23.0625 -39.75 24.125 C-38.48615523 30.65486463 -33.95892433 34.88508062 -28.64453125 38.68359375 C-24.54747383 41.10614194 -21.82804837 42.26211821 -17 42 C-10.12967127 30.42093309 -10.12967127 30.42093309 -6.52734375 17.625 C-5.29874573 11.5093121 -2.42683502 5.72366751 0 0 Z " fill="#F26801" transform="translate(255,74)"/>
<path d="M0 0 C1.15518918 0.90484792 2.29885406 1.8244206 3.4375 2.75 C4.07558594 3.26046875 4.71367187 3.7709375 5.37109375 4.296875 C7.3420029 6.35758577 7.88677125 7.13974344 8 10 C7.09727305 12.61612647 6.12729943 15.04602658 5 17.5625 C2.62998417 23.04773362 0.40118058 28.53666139 -1.59106445 34.17089844 C-7.03201324 49.54428589 -13.88627698 63.1658391 -24 76 C-24.71929687 76.91652344 -25.43859375 77.83304687 -26.1796875 78.77734375 C-33.93692997 87.99794881 -45.27140742 96.64083999 -57 100 C-68.19928982 99.20005073 -79.51589492 88.02757496 -86.734375 80.09375 C-87.85681528 78.75691102 -88.93570788 77.38357975 -90 76 C-84.66303852 59.84866921 -57.54588883 46.87999304 -44 38 C-27.9486974 27.7476954 -27.9486974 27.7476954 -13 16 C-12.36320312 15.4328125 -11.72640625 14.865625 -11.0703125 14.28125 C-6.57214816 10.0340562 -3.24784025 5.24651117 0 0 Z " fill="#F96F00" transform="translate(289,176)"/>
<path d="M0 0 C-7.6038185 15.8916887 -27.51352527 24.95587114 -41.66796875 33.9765625 C-56.23875094 43.27383654 -70.43070882 52.99987647 -82.84765625 65.0859375 C-85 67 -85 67 -87 67 C-93.27770369 53.45207029 -97.07441687 38.9766612 -95 24 C-93.37731914 20.51358786 -91.20592111 19.02886795 -88 17 C-87.00355469 16.27683594 -86.00710937 15.55367187 -84.98046875 14.80859375 C-59.09964113 -3.48138259 -30.16395682 -1.35665643 0 0 Z " fill="#F96E00" transform="translate(280,176)"/>
<path d="M0 0 C5.57925335 5.20730312 6.6667152 9.49602134 7.12768555 17.10864258 C7.87898045 39.05666567 3.50171866 62.46683604 -11.625 79.3125 C-20.5409682 87.81537314 -31.80975217 89.1802927 -43.5 89.1875 C-44.54542969 89.19974609 -45.59085937 89.21199219 -46.66796875 89.22460938 C-48.17810547 89.22750977 -48.17810547 89.22750977 -49.71875 89.23046875 C-50.63591797 89.23457764 -51.55308594 89.23868652 -52.49804688 89.24291992 C-55.11817127 88.9885265 -56.74956344 88.32821818 -59 87 C-58.17757812 86.52691406 -57.35515625 86.05382812 -56.5078125 85.56640625 C-26.59631855 67.84747277 -14.64907273 39.3661852 -3.52514648 7.94482422 C-3.05057007 6.60701904 -3.05057007 6.60701904 -2.56640625 5.2421875 C-2.28740479 4.4466748 -2.00840332 3.65116211 -1.72094727 2.83154297 C-1 1 -1 1 0 0 Z " fill="#F86E01" transform="translate(302,192)"/>
<path d="M0 0 C4.20820145 -0.08742801 8.41616776 -0.14053641 12.625 -0.1875 C14.40970703 -0.22520508 14.40970703 -0.22520508 16.23046875 -0.26367188 C23.74852741 -0.32667237 28.58608388 -0.10460157 34.328125 5.1171875 C36.65155208 9.12347064 36.67299468 12.56422535 36.75 17.125 C36.79012207 18.39380005 36.79012207 18.39380005 36.83105469 19.68823242 C36.88051802 21.36564967 36.92144883 23.04334401 36.953125 24.72119141 C36.99263056 26.64173789 37.07009871 28.56144884 37.15625 30.48046875 C37.32925946 35.70679607 37.26285334 39.64952888 34 44 C29.48769867 46.72352018 25.23256373 47.65435246 20.0625 48.1875 C19.38509766 48.26935547 18.70769531 48.35121094 18.00976562 48.43554688 C13.6521502 48.93272447 9.3807728 49.02795748 5 49 C4.91959473 47.69329346 4.83918945 46.38658691 4.75634766 45.0402832 C4.45536593 40.18491016 4.14339426 35.33029461 3.828125 30.47583008 C3.69329536 28.37608527 3.56143297 26.27614771 3.43261719 24.17602539 C3.24676836 21.15455237 3.05020254 18.13393699 2.8515625 15.11328125 C2.79626373 14.17664139 2.74096497 13.24000153 2.68399048 12.27497864 C2.38115856 7.82415373 2.05334076 4.05108565 0 0 Z " fill="#F8F8F9" transform="translate(135,370)"/>
<path d="M0 0 C3.00624662 1.13749872 4.01579328 2.38843053 5.95703125 4.9296875 C13.28777598 13.61592842 23.22748177 19.23878912 33.45703125 23.9296875 C34.79264765 24.59176836 36.12672813 25.25699454 37.45703125 25.9296875 C31.23506439 34.44553612 19.65235462 42.0096677 9.45703125 44.9296875 C-1.74225857 44.12973823 -13.05886367 32.95726246 -20.27734375 25.0234375 C-21.39978403 23.68659852 -22.47867663 22.31326725 -23.54296875 20.9296875 C-21.46386074 14.45377729 -16.60275876 11.17991111 -11.54296875 6.9296875 C-10.723125 6.21296875 -9.90328125 5.49625 -9.05859375 4.7578125 C-8.2903125 4.11328125 -7.52203125 3.46875 -6.73046875 2.8046875 C-6.04339844 2.22460938 -5.35632813 1.64453125 -4.6484375 1.046875 C-2.54296875 -0.0703125 -2.54296875 -0.0703125 0 0 Z " fill="#DB4D07" transform="translate(222.54296875,231.0703125)"/>
<path d="M0 0 C1.57949386 1.34161828 3.087374 2.76721331 4.5703125 4.21484375 C3.5803125 5.69984375 3.5803125 5.69984375 2.5703125 7.21484375 C0.60847473 7.5486908 0.60847473 7.5486908 -1.82495117 7.49194336 C-2.73738083 7.478806 -3.64981049 7.46566864 -4.58988953 7.45213318 C-5.58245255 7.4241011 -6.57501556 7.39606903 -7.59765625 7.3671875 C-9.7102831 7.3389407 -11.82291346 7.31095478 -13.93554688 7.28320312 C-17.25727185 7.22156789 -20.5787041 7.15321662 -23.90014648 7.07788086 C-36.7556607 6.80814419 -48.23958267 6.78217093 -60.4296875 11.21484375 C-61.18080811 11.47209229 -61.93192871 11.72934082 -62.70581055 11.99438477 C-70.90332708 14.9730555 -78.27556343 19.27995817 -85.4296875 24.21484375 C-81.3509614 9.5794148 -72.3078847 -1.83716806 -59.4296875 -9.78515625 C-41.38230551 -18.99237994 -15.30514932 -11.24510167 0 0 Z " fill="#F66D03" transform="translate(274.4296875,162.78515625)"/>
<path d="M0 0 C2 1 2 1 2.97387695 3.32568359 C3.30863037 4.33969238 3.64338379 5.35370117 3.98828125 6.3984375 C4.36533203 7.51863281 4.74238281 8.63882813 5.13085938 9.79296875 C5.52080078 10.97503906 5.91074219 12.15710938 6.3125 13.375 C8.83679135 21.00377827 11.47061041 28.40895424 14.94287109 35.66381836 C16.32748335 38.72371551 17.20371521 41.74247131 18 45 C27.64582714 44.03541729 33.77196091 39.1198475 40 32 C40.99 30.515 40.99 30.515 42 29 C42.66 29 43.32 29 44 29 C44.50734284 31.3736397 45.00602386 33.74857425 45.5 36.125 C45.64308594 36.79015625 45.78617187 37.4553125 45.93359375 38.140625 C48.01407629 48.24582592 48.01407629 48.24582592 45.88671875 51.92578125 C43.01340887 53.56172373 40.99193158 52.83706129 37.8125 52.1875 C36.72582031 51.97480469 35.63914062 51.76210937 34.51953125 51.54296875 C33.68808594 51.36378906 32.85664063 51.18460938 32 51 C32 51.66 32 52.32 32 53 C32.99 53 33.98 53 35 53 C35 53.66 35 54.32 35 55 C36.43859375 55.14501953 36.43859375 55.14501953 37.90625 55.29296875 C42.67235745 55.9774374 47.0111003 57.62118471 51.5 59.3125 C52.31597656 59.60833984 53.13195312 59.90417969 53.97265625 60.20898438 C58.96550464 62.06427234 63.45005881 64.2296729 68 67 C67.67 68.32 67.34 69.64 67 71 C66.09121094 70.55269531 65.18242187 70.10539062 64.24609375 69.64453125 C55.34335666 65.33370705 46.49449444 61.83996467 37 59 C36.01773438 58.70222656 35.03546875 58.40445313 34.0234375 58.09765625 C3.44628159 49.63208003 -30.49872274 53.38810715 -59 67 C-60.36447175 67.7737702 -61.72040065 68.56304384 -63.0625 69.375 C-64.031875 69.91125 -65.00125 70.4475 -66 71 C-66.99 70.67 -67.98 70.34 -69 70 C-68.74658203 68.125 -68.74658203 68.125 -68 66 C-66.28857422 64.875 -66.28857422 64.875 -64.0546875 64 C-63.23258789 63.67217529 -62.41048828 63.34435059 -61.56347656 63.0065918 C-60.23268066 62.50832886 -60.23268066 62.50832886 -58.875 62 C-57.5132666 61.47563354 -57.5132666 61.47563354 -56.12402344 60.94067383 C-48.52268233 58.07243266 -40.93745996 55.76672496 -33 54 C-31.07800781 53.55333984 -31.07800781 53.55333984 -29.1171875 53.09765625 C-18.91549551 50.93154357 -10.82573935 51 0 51 C0 34.17 0 17.34 0 0 Z " fill="#DB4B07" transform="translate(256,76)"/>
<path d="M0 0 C0.33 0 0.66 0 1 0 C1 17.49 1 34.98 1 53 C-7.415 53.495 -7.415 53.495 -16 54 C-20.49421664 54.76620239 -24.87505498 55.57301351 -29.3125 56.5625 C-31.45371715 57.0254314 -33.59561917 57.48520942 -35.73828125 57.94140625 C-37.11560425 58.24606812 -37.11560425 58.24606812 -38.52075195 58.55688477 C-41 59 -41 59 -45 59 C-47.90859265 56.10397147 -49.68022194 52.87134897 -51 49 C-50.69281552 45.98706733 -49.9078669 43.52908562 -48.88671875 40.68359375 C-47.61372564 36.83096701 -47.35657262 33.0109759 -48 29 C-48.66 28.01 -49.32 27.02 -50 26 C-49.68372903 22.45776514 -49.12451909 19.37355726 -48 16 C-45.02158727 17.38283448 -42.33197257 18.66802743 -40 21 C-39.87625 22.546875 -39.87625 22.546875 -39.75 24.125 C-38.48615523 30.65486463 -33.95892433 34.88508062 -28.64453125 38.68359375 C-24.54747383 41.10614194 -21.82804837 42.26211821 -17 42 C-10.12967127 30.42093309 -10.12967127 30.42093309 -6.52734375 17.625 C-5.29874573 11.5093121 -2.42683502 5.72366751 0 0 Z " fill="#FDA107" transform="translate(255,74)"/>
<path d="M0 0 C3.465 -0.0825 6.93 -0.165 10.5 -0.25 C12.11358398 -0.30462402 12.11358398 -0.30462402 13.75976562 -0.36035156 C20.30036519 -0.43517023 24.44115196 0.49325007 30 4 C31.28282363 6.56564725 31.20391953 8.51033069 31.25 11.375 C31.27578125 12.33148438 31.3015625 13.28796875 31.328125 14.2734375 C30.9513485 17.4042708 30.18639185 18.76054038 28 21 C27.34 21 26.68 21 26 21 C26 21.66 26 22.32 26 23 C26.61875 23.28875 27.2375 23.5775 27.875 23.875 C30 25 30 25 32 27 C32.5689079 30.38350489 32.53772752 33.61391382 32 37 C29.80977082 39.82424288 28.16982793 41.41508603 25 43 C23.1136088 43.084915 21.22421485 43.107193 19.3359375 43.09765625 C18.3257959 43.09515869 17.3156543 43.09266113 16.27490234 43.09008789 C14.98793457 43.08098389 13.7009668 43.07187988 12.375 43.0625 C6.249375 43.0315625 6.249375 43.0315625 0 43 C0 28.81 0 14.62 0 0 Z " fill="#F9F8FA" transform="translate(273,370)"/>
<path d="M0 0 C3.52067351 -0.08782542 7.04106144 -0.14066643 10.5625 -0.1875 C11.55314453 -0.21263672 12.54378906 -0.23777344 13.56445312 -0.26367188 C20.34207876 -0.33122296 25.55915813 0.11413262 30.9375 4.625 C32.61911191 8.38389721 32.80364072 11.96744566 32 16 C29.5 19.0625 29.5 19.0625 27 21 C27.804375 21.61875 28.60875 22.2375 29.4375 22.875 C32 25 32 25 33 27 C33.34411038 32.24768331 33.5679453 35.81689172 30 40 C26.31211656 41.83295993 23.3538927 42.23907907 19.26171875 42.1953125 C17.66166992 42.18564453 17.66166992 42.18564453 16.02929688 42.17578125 C14.92650391 42.15902344 13.82371094 42.14226562 12.6875 42.125 C11.56537109 42.11597656 10.44324219 42.10695313 9.28710938 42.09765625 C6.52452091 42.07414486 3.76237068 42.04128155 1 42 C-0.36130916 28.0212262 -0.09481882 14.03026854 0 0 Z " fill="#F9F8F9" transform="translate(234,370)"/>
<path d="M0 0 C3.70818297 -0.08756305 7.41609763 -0.14058015 11.125 -0.1875 C12.17171875 -0.21263672 13.2184375 -0.23777344 14.296875 -0.26367188 C20.84162794 -0.32580561 25.38997039 0.04343556 30.62792969 4.33325195 C32.37529187 6.45589281 32.3863262 7.61928423 32.3984375 10.34375 C32.40423828 11.59478516 32.40423828 11.59478516 32.41015625 12.87109375 C32.39855469 13.73863281 32.38695312 14.60617187 32.375 15.5 C32.38660156 16.36753906 32.39820313 17.23507812 32.41015625 18.12890625 C32.40628906 18.96292969 32.40242188 19.79695313 32.3984375 20.65625 C32.39505371 21.41744141 32.39166992 22.17863281 32.38818359 22.96289062 C31.90488012 25.49916997 30.84262997 26.26725867 29 28 C29.23963935 31.76663896 30.65381712 34.4846105 32.5625 37.6875 C35 41.79603399 35 41.79603399 35 44 C30.79401452 44.74588905 27.16701942 45.05738118 23 44 C20.49926903 41.06945589 19.00824129 38.21640281 17.40234375 34.72265625 C16.24290504 31.69286507 16.24290504 31.69286507 13 31 C13 35.62 13 40.24 13 45 C9.04 45 5.08 45 1 45 C0.22868137 29.98683373 -0.14418396 15.03284136 0 0 Z " fill="#F7F7F8" transform="translate(177,370)"/>
<path d="M0 0 C0.07476562 1.11375 0.14953125 2.2275 0.2265625 3.375 C1.01766663 13.12191883 2.80195959 21.51586219 6.5625 30.546875 C7.86090497 33.66586954 8.97370948 36.78297396 10 40 C9.26136719 40.53367188 8.52273437 41.06734375 7.76171875 41.6171875 C1.18156882 46.44987703 -4.90693958 51.49834681 -10.8203125 57.12890625 C-13 59 -13 59 -15 59 C-21.27770369 45.45207029 -25.07441687 30.9766612 -23 16 C-21.37586921 12.51047261 -19.21674297 11.02122904 -16 9 C-14.82793284 8.20140741 -13.65749384 7.4004224 -12.48828125 6.59765625 C-2.68047505 0 -2.68047505 0 0 0 Z " fill="#DB4D07" transform="translate(208,184)"/>
<path d="M0 0 C1.73252729 0.73299232 3.46402114 1.46863425 5.1875 2.22265625 C6.52394466 2.79582971 7.88227416 3.318599 9.25 3.8125 C11 5 11 5 12.3125 7.75 C15.02538285 12.97481142 19.5444289 16.74433118 25 19 C28.8186262 19.4324356 32.33695896 19.22101368 36 18 C36.83878455 19.28813342 37.67086783 20.58063256 38.5 21.875 C38.9640625 22.59429687 39.428125 23.31359375 39.90625 24.0546875 C41 26 41 26 41 28 C41.66 28.33 42.32 28.66 43 29 C42.02160156 29.31453125 41.04320312 29.6290625 40.03515625 29.953125 C32.83205365 32.29535086 25.85775091 34.75159167 19 38 C19 38.99 19 39.98 19 41 C22.70410885 39.57117556 26.24359559 37.92384759 29.8125 36.1875 C48.23622011 27.67146252 66.79831033 24.41286801 87 25 C87 26.98 87 28.96 87 31 C86.42258057 31.03963867 85.84516113 31.07927734 85.25024414 31.12011719 C62.58255867 32.74549148 42.43799214 37.17599872 22.2578125 47.8984375 C20 49 20 49 18 49 C17.52578613 47.78417236 17.05157227 46.56834473 16.56298828 45.31567383 C14.80018364 40.79622099 13.03709689 36.27687824 11.27392578 31.75756836 C10.51147922 29.80317123 9.74910871 27.84874442 8.98681641 25.89428711 C7.88984956 23.08178998 6.79260743 20.26940039 5.6953125 17.45703125 C5.3556546 16.58601273 5.0159967 15.7149942 4.66604614 14.81758118 C4.34586517 13.997108 4.0256842 13.17663483 3.69580078 12.33129883 C3.40014221 11.57080231 3.10448364 10.81030579 2.79986572 10.02676392 C2.14738553 8.37345729 1.46279662 6.73285208 0.76904297 5.09643555 C0 3 0 3 0 0 Z " fill="#F36C01" transform="translate(169,105)"/>
<path d="M0 0 C11.22 0 22.44 0 34 0 C33.01 3.3 32.02 6.6 31 10 C25.39 10 19.78 10 14 10 C14 12.97 14 15.94 14 19 C15.216875 18.979375 16.43375 18.95875 17.6875 18.9375 C20.91977322 18.93175884 23.84934741 19.21233685 27 20 C26.67 22.97 26.34 25.94 26 29 C21.71 29 17.42 29 13 29 C13 31.97 13 34.94 13 38 C14.21236328 38.09087891 14.21236328 38.09087891 15.44921875 38.18359375 C16.51785156 38.26738281 17.58648437 38.35117187 18.6875 38.4375 C19.74324219 38.51871094 20.79898437 38.59992188 21.88671875 38.68359375 C24.65086297 38.96451681 27.28945741 39.40156852 30 40 C30 43.3 30 46.6 30 50 C20.43 49.01 10.86 48.02 1 47 C1.01160156 43.85855469 1.02320313 40.71710938 1.03515625 37.48046875 C1.04295209 34.44230246 1.04902586 31.40413728 1.05493164 28.3659668 C1.05996444 26.25235496 1.0667912 24.13874662 1.07543945 22.02514648 C1.08755104 18.98941182 1.09323881 15.95372314 1.09765625 12.91796875 C1.10281754 11.97100632 1.10797882 11.02404388 1.11329651 10.04838562 C1.11337204 9.16769913 1.11344757 8.28701263 1.11352539 7.37963867 C1.115746 6.60464523 1.11796661 5.82965179 1.12025452 5.03117371 C1.07609077 2.79559412 1.07609077 2.79559412 0 0 Z " fill="#F9F8F9" transform="translate(342,370)"/>
<path d="M0 0 C-6.46205472 11.94501024 -12.94417589 18.65427569 -26 23 C-31.08010091 24.50786019 -36.24447678 24.18425985 -41.5 24.1875 C-42.54542969 24.19974609 -43.59085937 24.21199219 -44.66796875 24.22460938 C-46.17810547 24.22750977 -46.17810547 24.22750977 -47.71875 24.23046875 C-48.63591797 24.23457764 -49.55308594 24.23868652 -50.49804688 24.24291992 C-53.11817127 23.9885265 -54.74956344 23.32821818 -57 22 C-56.17757812 21.52691406 -55.35515625 21.05382812 -54.5078125 20.56640625 C-45.21407607 15.06099426 -37.62274004 8.67459542 -30 1 C-29.34 1.33 -28.68 1.66 -28 2 C-19.98893625 2.56676914 -12.82931592 2.12982921 -5.20703125 -0.44140625 C-3 -1 -3 -1 0 0 Z " fill="#DD4D07" transform="translate(300,257)"/>
<path d="M0 0 C3.96 0 7.92 0 12 0 C12 11.88 12 23.76 12 36 C16.95 36 21.9 36 27 36 C27 39.3 27 42.6 27 46 C17.50954461 46.26733677 8.38741554 45.23257977 -1 44 C-1.06999599 34.02751531 -0.86188011 24.09137389 -0.5 14.125 C-0.45160031 12.74349736 -0.40342227 11.36198694 -0.35546875 9.98046875 C-0.23914338 6.65356319 -0.12062283 3.32675204 0 0 Z " fill="#F5F5F7" transform="translate(311,370)"/>
<path d="M0 0 C2.64 0 5.28 0 8 0 C9.46939453 4.30322683 10.77443263 8.62297367 12 13 C13.32 9.04 14.64 5.08 16 1 C17.98 1 19.96 1 22 1 C23.88695626 5.28853694 25.58192622 9.52761347 27 14 C27.20496094 13.21753906 27.40992188 12.43507813 27.62109375 11.62890625 C27.89050781 10.61699219 28.15992188 9.60507812 28.4375 8.5625 C28.70433594 7.55316406 28.97117187 6.54382813 29.24609375 5.50390625 C30 3 30 3 31 2 C32.52519276 2.08937803 34.04681929 2.24537146 35.5625 2.4375 C36.38878906 2.53933594 37.21507812 2.64117187 38.06640625 2.74609375 C38.70449219 2.82988281 39.34257812 2.91367187 40 3 C38.68970128 6.79243101 37.37638934 10.58381161 36.0625 14.375 C35.68931641 15.45523437 35.31613281 16.53546875 34.93164062 17.6484375 C34.57392578 18.6796875 34.21621094 19.7109375 33.84765625 20.7734375 C33.51773682 21.72653809 33.18781738 22.67963867 32.84790039 23.66162109 C32 26 32 26 31 28 C28.03 27.67 25.06 27.34 22 27 C20.54815522 22.46298506 19.76490804 18.81938524 20 14 C19.34 14 18.68 14 18 14 C17.87625 15.2375 17.7525 16.475 17.625 17.75 C17.2793272 21.20672799 16.65554702 22.68890596 15 26 C12.03 26 9.06 26 6 26 C4.9916593 22.41896026 3.99478914 18.83482575 3 15.25 C2.71382813 14.23421875 2.42765625 13.2184375 2.1328125 12.171875 C1.86210937 11.1921875 1.59140625 10.2125 1.3125 9.203125 C1.06113281 8.30239258 0.80976563 7.40166016 0.55078125 6.47363281 C0 4 0 4 0 0 Z " fill="#D84B0D" transform="translate(276,427)"/>
<path d="M0 0 C0.73895508 -0.00095673 1.47791016 -0.00191345 2.23925781 -0.00289917 C3.80257248 -0.00357798 5.36589001 -0.00174459 6.92919922 0.00244141 C9.27708593 0.00773269 11.62477593 0.00251818 13.97265625 -0.00390625 C22.80585764 -0.0074126 31.51387402 0.2797655 40.3125 1.1328125 C39.9825 1.7928125 39.6525 2.4528125 39.3125 3.1328125 C38.6525 3.1328125 37.9925 3.1328125 37.3125 3.1328125 C37.3125 4.1228125 37.3125 5.1128125 37.3125 6.1328125 C39.6225 6.1328125 41.9325 6.1328125 44.3125 6.1328125 C43.9825 6.7928125 43.6525 7.4528125 43.3125 8.1328125 C42.30219727 8.08737305 42.30219727 8.08737305 41.27148438 8.04101562 C5.45646027 5.87316803 5.45646027 5.87316803 -28.75 15.4453125 C-31.60127155 16.81243338 -32.48922672 17.14899807 -35.75 16.8828125 C-36.389375 16.6353125 -37.02875 16.3878125 -37.6875 16.1328125 C-38.0175 14.8128125 -38.3475 13.4928125 -38.6875 12.1328125 C-33.18691736 8.3572201 -27.85653382 5.86490016 -21.5 3.8828125 C-20.71947266 3.62757813 -19.93894531 3.37234375 -19.13476562 3.109375 C-12.65136213 1.01972841 -6.84460534 -0.01982143 0 0 Z " fill="#0C1B37" transform="translate(236.6875,168.8671875)"/>
<path d="M0 0 C1.67299959 0.65061095 3.33859237 1.32033324 5 2 C6.051875 2.37125 6.051875 2.37125 7.125 2.75 C9 4 9 4 10.3125 6.75 C13.02538285 11.97481142 17.5444289 15.74433118 23 18 C26.8186262 18.4324356 30.33695896 18.22101368 34 17 C34.83878455 18.28813342 35.67086783 19.58063256 36.5 20.875 C36.9640625 21.59429687 37.428125 22.31359375 37.90625 23.0546875 C39 25 39 25 39 27 C39.66 27.33 40.32 27.66 41 28 C40.03320312 28.31453125 39.06640625 28.6290625 38.0703125 28.953125 C30.60776244 31.39968964 23.24305165 33.94939707 16 37 C14.99303432 34.89915791 13.9946411 32.79420511 13 30.6875 C12.443125 29.51574219 11.88625 28.34398437 11.3125 27.13671875 C10 24 10 24 10 21 C9.01 21 8.02 21 7 21 C5.82504857 18.06574629 4.66149148 15.12710487 3.5 12.1875 C3.16613281 11.35412109 2.83226562 10.52074219 2.48828125 9.66210938 C2.17246094 8.85966797 1.85664063 8.05722656 1.53125 7.23046875 C1.23798828 6.49207764 0.94472656 5.75368652 0.64257812 4.99291992 C0 3 0 3 0 0 Z " fill="#DC4B05" transform="translate(171,106)"/>
<path d="M0 0 C3.96 0 7.92 0 12 0 C12.93999082 9.44431718 13.12088464 18.77406214 13.0625 28.25 C13.05746923 29.68880051 13.05290914 31.12760274 13.04882812 32.56640625 C13.03796064 36.04430751 13.02078528 39.52214217 13 43 C9.04 43 5.08 43 1 43 C-0.14806378 13.62186788 -0.14806378 13.62186788 0 0 Z " fill="#F3F3F5" transform="translate(215,370)"/>
<path d="M0 0 C2.8875 -0.061875 5.775 -0.12375 8.75 -0.1875 C9.65331055 -0.21481201 10.55662109 -0.24212402 11.48730469 -0.27026367 C14.91201043 -0.30585795 17.40914942 -0.27012894 20.5546875 1.16796875 C22.5416449 3.6865715 22.46895742 5.32253095 22.375 8.5 C22.35566406 9.93859375 22.35566406 9.93859375 22.3359375 11.40625 C22 14 22 14 20 17 C21.65 19.64 23.3 22.28 25 25 C19.01973684 25.52767028 19.01973684 25.52767028 16 25 C13.625 22.0625 13.625 22.0625 12 19 C11.01 18.67 10.02 18.34 9 18 C9 20.64 9 23.28 9 26 C6.03 26 3.06 26 0 26 C0 17.42 0 8.84 0 0 Z " fill="#DA4E0F" transform="translate(221,427)"/>
<path d="M0 0 C-0.33 1.32 -0.66 2.64 -1 4 C-1.90878906 3.55269531 -2.81757813 3.10539062 -3.75390625 2.64453125 C-12.65664334 -1.66629295 -21.50550556 -5.16003533 -31 -8 C-32.47339844 -8.44666016 -32.47339844 -8.44666016 -33.9765625 -8.90234375 C-64.55371841 -17.36791997 -98.49872274 -13.61189285 -127 0 C-128.36447175 0.7737702 -129.72040065 1.56304384 -131.0625 2.375 C-132.031875 2.91125 -133.00125 3.4475 -134 4 C-134.99 3.67 -135.98 3.34 -137 3 C-136.74658203 1.125 -136.74658203 1.125 -136 -1 C-134.28857422 -2.125 -134.28857422 -2.125 -132.0546875 -3 C-130.82153809 -3.49173706 -130.82153809 -3.49173706 -129.56347656 -3.9934082 C-128.6762793 -4.3255835 -127.78908203 -4.65775879 -126.875 -5 C-125.96717773 -5.34957764 -125.05935547 -5.69915527 -124.12402344 -6.05932617 C-116.5183129 -8.92921607 -108.93503947 -11.20681968 -101 -13 C-99.32164062 -13.44666016 -99.32164062 -13.44666016 -97.609375 -13.90234375 C-66.16908873 -21.28604734 -27.80464964 -16.29743574 0 0 Z " fill="#141731" transform="translate(324,143)"/>
<path d="M0 0 C6.6 0 13.2 0 20 0 C19.67 1.98 19.34 3.96 19 6 C15.37 6 11.74 6 8 6 C8 6.99 8 7.98 8 9 C11.3 9 14.6 9 18 9 C18 10.98 18 12.96 18 15 C14.7 15 11.4 15 8 15 C8 16.32 8 17.64 8 19 C11.96 19 15.92 19 20 19 C20 20.98 20 22.96 20 25 C13.4 25 6.8 25 0 25 C0 16.75 0 8.5 0 0 Z " fill="#D84C0E" transform="translate(251,427)"/>
<path d="M0 0 C1.27230469 0.00902344 2.54460937 0.01804687 3.85546875 0.02734375 C5.31919922 0.04474609 5.31919922 0.04474609 6.8125 0.0625 C7.1425 2.3725 7.4725 4.6825 7.8125 7.0625 C3.8525 7.0625 -0.1075 7.0625 -4.1875 7.0625 C-4.1875 11.0225 -4.1875 14.9825 -4.1875 19.0625 C-0.2275 19.0625 3.7325 19.0625 7.8125 19.0625 C7.8125 21.0425 7.8125 23.0225 7.8125 25.0625 C4.09675514 25.90418806 0.55861302 26.28351625 -3.25 26.375 C-4.78333984 26.43107422 -4.78333984 26.43107422 -6.34765625 26.48828125 C-9.1875 26.0625 -9.1875 26.0625 -11.53125 24.609375 C-13.99832882 20.81565945 -13.73403693 17.42830646 -13.625 13 C-13.63208984 12.18466797 -13.63917969 11.36933594 -13.64648438 10.52929688 C-13.58274216 4.56204518 -13.58274216 4.56204518 -11.84790039 2.36938477 C-8.20405711 -0.49864833 -4.43677915 -0.0407044 0 0 Z " fill="#DA4E11" transform="translate(207.1875,427.9375)"/>
<path d="M0 0 C1.15886719 -0.00257813 2.31773437 -0.00515625 3.51171875 -0.0078125 C5.33123047 0.00378906 5.33123047 0.00378906 7.1875 0.015625 C8.36957031 0.00789062 9.55164063 0.00015625 10.76953125 -0.0078125 C19.1480616 0.01066276 27.19809424 0.60248975 35.1875 3.265625 C39.48052091 8.76471199 39.68256451 14.55475053 39.1875 21.265625 C35.71662191 19.2923339 32.25889426 17.30812949 28.828125 15.265625 C21.79335154 11.11608121 15.03007793 7.69156155 7.1875 5.265625 C5.99125 4.87375 4.795 4.481875 3.5625 4.078125 C-0.54436682 3.08943484 -4.60977807 2.6277643 -8.8125 2.265625 C-5.36989158 -0.02944728 -4.05387572 0.00874757 0 0 Z " fill="#F56802" transform="translate(246.8125,142.734375)"/>
<path d="M0 0 C1.54296875 0.93359375 1.54296875 0.93359375 3.1875 2.4375 C4.11949219 3.27667969 4.11949219 3.27667969 5.0703125 4.1328125 C6.32488115 5.34674734 7.55123298 6.59078332 8.7421875 7.8671875 C15.99335854 15.61629304 24.95283549 20.59896205 34 26 C32.35061678 27.99662179 31.22285521 28.92597197 28.7421875 29.75 C21.55673183 30.40508428 14.09852687 24.29865559 8.6875 20.0625 C-3.95023879 9.39877194 -3.95023879 9.39877194 -5 4 C-3 1 -3 1 0 0 Z " fill="#F86A00" transform="translate(204,246)"/>
<path d="M0 0 C0.66 0 1.32 0 2 0 C2.50734284 2.3736397 3.00602386 4.74857425 3.5 7.125 C3.64308594 7.79015625 3.78617187 8.4553125 3.93359375 9.140625 C6.0466469 19.404026 6.0466469 19.404026 3.7421875 22.91796875 C2 24 2 24 -1.875 23.3125 C-3.04482422 23.00119141 -3.04482422 23.00119141 -4.23828125 22.68359375 C-9.41728677 21.40166169 -14.72419507 20.76650025 -20 20 C-20 18.68 -20 17.36 -20 16 C-19.3709375 15.731875 -18.741875 15.46375 -18.09375 15.1875 C-10.36631364 11.64963757 -4.73189272 7.09783908 0 0 Z " fill="#0E1831" transform="translate(298,105)"/>
<path d="M0 0 C3.99900579 1.41525613 7.13669183 3.32057 10.5625 5.8125 C11.49191406 6.47894531 12.42132813 7.14539063 13.37890625 7.83203125 C16.01124144 10.00929806 17.97009115 12.26320525 20 15 C18.9352129 17.00993521 17.84756779 19.0077761 16.75 21 C16.14671875 22.11375 15.5434375 23.2275 14.921875 24.375 C14.28765625 25.24125 13.6534375 26.1075 13 27 C9 27 9 27 6.375 24.6875 C1.43517087 19.09769335 1.87976591 15.66439111 2.125 8.4453125 C2.00362092 5.09980165 1.45139775 2.98216881 0 0 Z " fill="#F5710D" transform="translate(290,149)"/>
<path d="M0 0 C1.2951165 3.8853495 0.39397444 5.58244318 -0.875 9.4375 C-2.59281685 14.67475018 -2.59281685 14.67475018 -4 20 C-3.34 20.33 -2.68 20.66 -2 21 C-3.08539063 21.53109375 -4.17078125 22.0621875 -5.2890625 22.609375 C-6.73448239 23.3226991 -8.17978889 24.03625301 -9.625 24.75 C-10.33785156 25.09804687 -11.05070313 25.44609375 -11.78515625 25.8046875 C-16.08963907 27.93718358 -20.06441288 30.2438475 -24 33 C-20.05892405 18.85849216 -11.64628404 8.57613073 0 0 Z " fill="#DE4E06" transform="translate(213,154)"/>
<path d="M0 0 C0 1.98 0 3.96 0 6 C-0.57741943 6.03963867 -1.15483887 6.07927734 -1.74975586 6.12011719 C-12.65655564 6.90218345 -23.23187655 7.87654956 -33.80639648 10.76660156 C-38.7266448 12.0911184 -38.7266448 12.0911184 -42 11 C-41.34 11 -40.68 11 -40 11 C-40 9.68 -40 8.36 -40 7 C-40.99 6.67 -41.98 6.34 -43 6 C-28.20759657 1.15542908 -15.46490702 -0.28846459 0 0 Z " fill="#F69904" transform="translate(256,130)"/>
<path d="M0 0 C0.19401633 1.81181405 0.38004375 3.62448532 0.5625 5.4375 C0.71912109 6.95150391 0.71912109 6.95150391 0.87890625 8.49609375 C0.93884766 9.73552734 0.93884766 9.73552734 1 11 C0.67 11.33 0.34 11.66 0 12 C-0.24273323 14.54869892 -0.38366867 17.09604532 -0.5234375 19.65234375 C-1 22 -1 22 -4 24 C-5.4783226 21.04335481 -5.06032783 18.25770263 -5 15 C-5.680625 15.680625 -6.36125 16.36125 -7.0625 17.0625 C-7.52398437 17.51753906 -7.98546875 17.97257812 -8.4609375 18.44140625 C-9.51333294 19.50715696 -10.53864106 20.60016098 -11.5390625 21.71484375 C-15.92279217 26.46215289 -20.78641905 30.00166241 -27 32 C-29.1875 31.77734375 -29.1875 31.77734375 -31 31 C-32.8125 28.5625 -32.8125 28.5625 -34 26 C-33.67 25.34 -33.34 24.68 -33 24 C-32.34 24.66 -31.68 25.32 -31 26 C-23.32027712 25.6988344 -18.25646455 22.59124634 -13.125 17.1875 C-10.67454121 14.27825488 -10.03592333 13.26044414 -9.5 9.375 C-8.84639205 4.96314637 -7.06346585 3.76264597 -3.69140625 1.06640625 C-2 0 -2 0 0 0 Z " fill="#F27812" transform="translate(305,90)"/>
<path d="M0 0 C1.97419922 0.19916016 1.97419922 0.19916016 3.98828125 0.40234375 C17.48840795 1.76121193 17.48840795 1.76121193 31 3 C28.56346596 5.43653404 26.43823392 6.14332502 23.22265625 7.3828125 C22.06958984 7.82753906 20.91652344 8.27226562 19.72851562 8.73046875 C17.91383789 9.42076172 17.91383789 9.42076172 16.0625 10.125 C14.25362305 10.82689453 14.25362305 10.82689453 12.40820312 11.54296875 C3.38263028 15 3.38263028 15 0 15 C0 10.05 0 5.1 0 0 Z " fill="#09142A" transform="translate(326,434)"/>
<path d="M0 0 C6.15234375 -0.09765625 6.15234375 -0.09765625 8 0 C10.61783279 2.61783279 9.49298786 9.89840984 9.625 13.4375 C9.6765625 14.60861328 9.728125 15.77972656 9.78125 16.98632812 C9.82507813 18.10330078 9.86890625 19.22027344 9.9140625 20.37109375 C9.9548291 21.40161865 9.9955957 22.43214355 10.03759766 23.49389648 C10 26 10 26 9 28 C6.36 28 3.72 28 1 28 C0.38673965 18.6587308 -0.1820896 9.36749815 0 0 Z " fill="#111C33" transform="translate(150,380)"/>
<path d="M0 0 C5.45633178 6.59244469 5.55288454 15.56731092 5.359375 23.83984375 C4.14599014 34.50971717 -3.83465812 41.69662176 -11 49 C-11.33 48.34 -11.66 47.68 -12 47 C-11.1840399 45.36501229 -10.29276354 43.76759043 -9.375 42.1875 C-2.7615144 29.37676216 -0.26466043 14.31572321 0 0 Z " fill="#E34E05" transform="translate(316,215)"/>
<path d="M0 0 C6.35294118 0.35294118 6.35294118 0.35294118 8.875 2.875 C13.42560771 11.47059234 11.38805803 23.93817264 9 33 C8.67 33 8.34 33 8 33 C7.79246094 32.06800781 7.58492188 31.13601562 7.37109375 30.17578125 C5.33330016 21.74323792 2.80555317 15.12634568 -1.8046875 7.70703125 C-3 5 -3 5 -2.2578125 2.69921875 C-1 1 -1 1 0 0 Z " fill="#F26B01" transform="translate(318,194)"/>
<path d="M0 0 C0 4.95 0 9.9 0 15 C-4.00919335 14.19816133 -6.8546408 13.33230937 -10.51953125 11.71484375 C-11.54111328 11.26689453 -12.56269531 10.81894531 -13.61523438 10.35742188 C-14.67033203 9.88884766 -15.72542969 9.42027344 -16.8125 8.9375 C-17.88693359 8.46505859 -18.96136719 7.99261719 -20.06835938 7.50585938 C-22.71423376 6.34167464 -25.35798995 5.17292168 -28 4 C-28 3.67 -28 3.34 -28 3 C-23.52093142 2.49911873 -19.04172929 1.99944194 -14.5625 1.5 C-12.6434082 1.28537109 -12.6434082 1.28537109 -10.68554688 1.06640625 C-9.47060547 0.93105469 -8.25566406 0.79570312 -7.00390625 0.65625 C-5.87799072 0.53056641 -4.7520752 0.40488281 -3.59204102 0.27539062 C-1 0 -1 0 0 0 Z " fill="#0D182F" transform="translate(183,434)"/>
<path d="M0 0 C2.71752371 1.06271877 5.39421591 2.17621401 8.05859375 3.3671875 C21.90503877 9.54606354 35.26888206 12.89634759 50.4375 13.5625 C51.35982422 13.60568359 52.28214844 13.64886719 53.23242188 13.69335938 C55.48816163 13.79854931 57.74399499 13.90069107 60 14 C56.13111202 17.86888798 51.34515297 18.25528491 46.03857422 18.33007812 C28.27512762 18.18575764 13.656554 12.42691253 0 1 C0 0.67 0 0.34 0 0 Z " fill="#EDEEF0" transform="translate(210,278)"/>
<path d="M0 0 C0.33 0 0.66 0 1 0 C1.09498779 0.54301758 1.18997559 1.08603516 1.2878418 1.64550781 C3.01110191 11.31212774 4.6624919 20.55372474 8.8515625 29.4921875 C10 32 10 32 11.0234375 35.2578125 C11.69109881 38.13411474 11.69109881 38.13411474 14 39 C12.37660195 40.70884005 10.70680947 42.37446717 9 44 C8.34 44 7.68 44 7 44 C0.46442512 29.89555777 -1.9428402 16.42994254 -1 1 C-0.67 0.67 -0.34 0.34 0 0 Z " fill="#F36701" transform="translate(186,199)"/>
<path d="M0 0 C0.33 0 0.66 0 1 0 C0.40652599 6.56675142 -1.16289431 12.48549836 -3.1875 18.75 C-3.49848633 19.71848877 -3.80947266 20.68697754 -4.12988281 21.68481445 C-10.29512497 40.39221632 -10.29512497 40.39221632 -16 45 C-21.42231332 45.86757013 -25.09297729 44.50519243 -29.6484375 41.75 C-34.34224383 38.25693482 -39.87605333 33.65793554 -41.64453125 27.90234375 C-41.79349012 26.27072446 -41.89987698 24.63534267 -42 23 C-43.91738855 21.03712176 -43.91738855 21.03712176 -46 20 C-46.75427297 24.97906259 -46.75427297 24.97906259 -47 30 C-48.5625 28.4375 -48.5625 28.4375 -50 26 C-49.748267 22.41280475 -49.1355927 19.40677809 -48 16 C-45.02158727 17.38283448 -42.33197257 18.66802743 -40 21 C-39.87625 22.546875 -39.87625 22.546875 -39.75 24.125 C-38.48615523 30.65486463 -33.95892433 34.88508062 -28.64453125 38.68359375 C-24.54747383 41.10614194 -21.82804837 42.26211821 -17 42 C-10.12967127 30.42093309 -10.12967127 30.42093309 -6.52734375 17.625 C-5.29874573 11.5093121 -2.42683502 5.72366751 0 0 Z " fill="#F4F0E5" transform="translate(255,74)"/>
<path d="M0 0 C4.18375468 1.39458489 4.66263889 3.52903739 6.6875 7.375 C7.31011719 8.53773438 7.93273437 9.70046875 8.57421875 10.8984375 C10 14 10 14 10 17 C8.86111328 17.19916016 8.86111328 17.19916016 7.69921875 17.40234375 C6.70535156 17.57894531 5.71148437 17.75554687 4.6875 17.9375 C3.70136719 18.11152344 2.71523438 18.28554687 1.69921875 18.46484375 C-1.08189213 18.95746847 -1.08189213 18.95746847 -4 20 C-7.06603774 15.70754717 -7.06603774 15.70754717 -6.78125 12.65625 C-5.89405351 9.63978193 -4.60524619 7.34879712 -2.9375 4.6875 C-2.38964844 3.80449219 -1.84179688 2.92148438 -1.27734375 2.01171875 C-0.64505859 1.01591797 -0.64505859 1.01591797 0 0 Z " fill="#F56901" transform="translate(314,170)"/>
<path d="M0 0 C11.82507272 2.89416171 23.17353142 7.76184763 31.96875 16.34765625 C31.30875 17.00765625 30.64875 17.66765625 29.96875 18.34765625 C29.18113281 17.82816406 28.39351563 17.30867188 27.58203125 16.7734375 C11.06161858 6.19646324 -5.60005336 2.31256156 -25.03125 1.34765625 C-18.64496748 -2.90986543 -7.40282907 -1.38431417 0 0 Z " fill="#F4ECD9" transform="translate(247.03125,150.65234375)"/>
<path d="M0 0 C1.67299959 0.65061095 3.33859237 1.32033324 5 2 C6.051875 2.37125 6.051875 2.37125 7.125 2.75 C9 4 9 4 10.3125 6.75 C13.48606302 12.8620473 18.77442523 16.26682083 25 19 C25 19.66 25 20.32 25 21 C22.328125 21.7421875 22.328125 21.7421875 19 22 C16.296875 20.3828125 16.296875 20.3828125 13.75 18.125 C10.58083511 15.25477773 10.58083511 15.25477773 7 13 C7.66 15.64 8.32 18.28 9 21 C8.34 21 7.68 21 7 21 C5.82504857 18.06574629 4.66149148 15.12710487 3.5 12.1875 C3.16613281 11.35412109 2.83226562 10.52074219 2.48828125 9.66210938 C2.17246094 8.85966797 1.85664063 8.05722656 1.53125 7.23046875 C1.23798828 6.49207764 0.94472656 5.75368652 0.64257812 4.99291992 C0 3 0 3 0 0 Z " fill="#F36603" transform="translate(171,106)"/>
<path d="M0 0 C0.66 0 1.32 0 2 0 C3.2890625 1.6796875 3.2890625 1.6796875 4.625 3.875 C5.07101563 4.59429687 5.51703125 5.31359375 5.9765625 6.0546875 C7 8 7 8 7 10 C7.66 10.33 8.32 10.66 9 11 C7.06643218 11.69848264 5.12797702 12.38344814 3.1875 13.0625 C2.10855469 13.44535156 1.02960938 13.82820312 -0.08203125 14.22265625 C-3 15 -3 15 -6 14 C-5.34 14 -4.68 14 -4 14 C-4.639375 13.05125 -5.27875 12.1025 -5.9375 11.125 C-8 8 -8 8 -9 6 C-6.63672401 3.26357517 -4.36305523 2.23902035 -1 1 C-0.67 0.67 -0.34 0.34 0 0 Z " fill="#F16E02" transform="translate(203,123)"/>
<path d="M0 0 C-0.33 0.99 -0.66 1.98 -1 3 C-3.12492345 3.02755664 -5.24995705 3.04664147 -7.375 3.0625 C-8.55835938 3.07410156 -9.74171875 3.08570313 -10.9609375 3.09765625 C-13.86310558 3.07486435 -16.68031304 2.8347995 -19.5625 2.5 C-26.24262863 1.78204225 -32.91421068 1.89257711 -39.625 1.9375 C-41.56052734 1.94426758 -41.56052734 1.94426758 -43.53515625 1.95117188 C-46.69015375 1.96285705 -49.84505137 1.97923956 -53 2 C-40.7906461 -6.13956927 -13.99576254 -0.62947449 0 0 Z " fill="#ECD16E" transform="translate(280,176)"/>
<path d="M0 0 C1.15518918 0.90484792 2.29885406 1.8244206 3.4375 2.75 C4.07558594 3.26046875 4.71367187 3.7709375 5.37109375 4.296875 C7.21245709 6.22213739 7.79014782 7.35263407 8 10 C7.34 10.66 6.68 11.32 6 12 C4.68 10.68 3.36 9.36 2 8 C-2.3361867 9.8878636 -5.2841346 12.90881604 -8.68359375 16.125 C-11.05250926 18.04250328 -13.12896987 19.02779932 -16 20 C-10.46379648 13.518591 -10.46379648 13.518591 -8.1484375 10.9296875 C-5.0376843 7.44829137 -2.2057184 4.15194052 0 0 Z " fill="#FAD24F" transform="translate(289,176)"/>
<path d="M0 0 C0.99 0 1.98 0 3 0 C2.27176707 4.60202755 -0.21552129 6.47813935 -3.65625 9.3828125 C-7.18249787 11.81592353 -10.86523161 12.99502157 -15 14 C-17.79872437 11.47211993 -19.45773019 9.79588866 -20 6 C-18.515 6.99 -18.515 6.99 -17 8 C-10.73513465 7.75904364 -5.71925109 5.71925109 -1.25 1.25 C-0.8375 0.8375 -0.425 0.425 0 0 Z " fill="#EF6002" transform="translate(291,108)"/>
<path d="M0 0 C2.33294775 -0.04241723 4.66702567 -0.04092937 7 0 C8 1 8 1 8.1328125 3.25 C8.13023437 4.1575 8.12765625 5.065 8.125 6 C8.12757813 6.9075 8.13015625 7.815 8.1328125 8.75 C8 11 8 11 7 12 C4.66702567 12.04092937 2.33294775 12.04241723 0 12 C0 8.04 0 4.08 0 0 Z " fill="#09132A" transform="translate(189,380)"/>
<path d="M0 0 C2.65073746 1.32536873 2.72666671 2.43259841 3.7265625 5.18359375 C4.0359375 6.02857422 4.3453125 6.87355469 4.6640625 7.74414062 C4.98117188 8.63294922 5.29828125 9.52175781 5.625 10.4375 C5.94984375 11.32244141 6.2746875 12.20738281 6.609375 13.11914062 C9 19.71344866 9 19.71344866 9 22 C9.99 22 10.98 22 12 22 C12.89395329 23.90790032 13.76459334 25.82673806 14.625 27.75 C15.11226562 28.81734375 15.59953125 29.8846875 16.1015625 30.984375 C17 34 17 34 16.1484375 36.390625 C15.76945313 36.92171875 15.39046875 37.4528125 15 38 C12.16014713 34.6413228 10.63104532 30.99757284 9.08203125 26.93359375 C8.81992355 26.25829117 8.55781586 25.58298859 8.2877655 24.88722229 C7.73769122 23.46546513 7.19073561 22.04249788 6.64672852 20.6184082 C5.8127532 18.43816193 4.9667038 16.26288549 4.11914062 14.08789062 C3.58521244 12.7034044 3.05198496 11.31864771 2.51953125 9.93359375 C2.13991997 8.95851112 2.13991997 8.95851112 1.75263977 7.96372986 C0.68314734 5.14578116 0 3.04397707 0 0 Z " fill="#ECBC89" transform="translate(169,105)"/>
<path d="M0 0 C0 0.33 0 0.66 0 1 C-0.71953857 1.07516846 -1.43907715 1.15033691 -2.18041992 1.2277832 C-19.60231512 2.90166651 -19.60231512 2.90166651 -36.6796875 6.546875 C-39.16508279 7.03223839 -40.62763595 6.8165346 -43 6 C-32.73786096 -3.09077825 -12.65655388 -0.32439905 0 0 Z " fill="#0B1337" transform="translate(257,128)"/>
<path d="M0 0 C3.375 -0.125 3.375 -0.125 7 0 C9 2 9 2 9.25 4.5 C9 7 9 7 7 9 C3.375 9.125 3.375 9.125 0 9 C0 6.03 0 3.06 0 0 Z " fill="#1B253C" transform="translate(246,395)"/>
<path d="M0 0 C3.375 -0.125 3.375 -0.125 7 0 C9 2 9 2 9.25 4.5 C9 7 9 7 7 9 C3.375 9.125 3.375 9.125 0 9 C0 6.03 0 3.06 0 0 Z " fill="#1D273C" transform="translate(284,379)"/>
<path d="M0 0 C2.5 1.0625 2.5 1.0625 4.5 3.0625 C1.41674642 3.1207253 -1.66636505 3.15617134 -4.75 3.1875 C-6.05904297 3.21263672 -6.05904297 3.21263672 -7.39453125 3.23828125 C-8.23886719 3.24472656 -9.08320313 3.25117188 -9.953125 3.2578125 C-10.72817383 3.26828613 -11.50322266 3.27875977 -12.30175781 3.28955078 C-14.75883539 3.03576556 -16.37311542 2.28694152 -18.5 1.0625 C-12.88932176 -3.6130652 -6.52227111 -1.7470369 0 0 Z " fill="#F56801" transform="translate(261.5,277.9375)"/>
<path d="M0 0 C4.26838806 -0.02491426 8.53673639 -0.04296047 12.80517578 -0.05493164 C14.25407652 -0.05992785 15.70297231 -0.06672709 17.15185547 -0.07543945 C31.97156783 -0.16225376 31.97156783 -0.16225376 39 1 C39 1.99 39 2.98 39 4 C37.69289063 3.86722656 36.38578125 3.73445312 35.0390625 3.59765625 C23.36639335 2.43577047 11.71759277 1.54367341 0 1 C0 0.67 0 0.34 0 0 Z " fill="#201E30" transform="translate(239,127)"/>
<path d="M0 0 C6.15234375 -0.09765625 6.15234375 -0.09765625 8 0 C9 1 9 1 9.125 4 C9 7 9 7 8 8 C5.32941149 8.14115161 2.67567762 8.04247107 0 8 C0 5.36 0 2.72 0 0 Z " fill="#0B162D" transform="translate(284,396)"/>
<path d="M0 0 C2.91725552 3.3877806 4.28255824 7.07337555 5.6875 11.25 C6.02491211 12.22453125 6.02491211 12.22453125 6.36914062 13.21875 C6.91916227 14.81030199 7.46046788 16.40486156 8 18 C6.68 18 5.36 18 4 18 C0.81660607 14.57820212 -2.05985187 10.34170438 -1.9375 5.5546875 C-1.375 3.375 -1.375 3.375 0 0 Z " fill="#F78606" transform="translate(206,115)"/>
<path d="M0 0 C2.33294775 -0.04241723 4.66702567 -0.04092937 7 0 C8 1 8 1 8.125 4 C8 7 8 7 7 8 C4.66702567 8.04092937 2.33294775 8.04241723 0 8 C0 5.36 0 2.72 0 0 Z " fill="#0A152B" transform="translate(246,379)"/>
<path d="M0 0 C3.0732457 0 5.15482222 0.00635967 8 1 C11.64238416 4.8325086 12.22092096 9.38935919 12.25 14.5 C12.1867057 16.00097911 12.11052603 17.50175822 12 19 C10.18596811 16.27895216 9.30603622 14.17268346 8.25 11.125 C6.34810929 6.19016994 4.27673576 4.01315474 0 1 C0 0.67 0 0.34 0 0 Z " fill="#F3C440" transform="translate(274,145)"/>
<path d="M0 0 C0.66 0.66 1.32 1.32 2 2 C-1.93030788 7.33731159 -5.69898077 11.99191229 -11 16 C-10.35199575 14.32598903 -9.67834587 12.66194738 -9 11 C-8.72027344 10.25234375 -8.44054687 9.5046875 -8.15234375 8.734375 C-5.60681118 2.34477908 -5.60681118 2.34477908 -2.25 0.4375 C-1.5075 0.293125 -0.765 0.14875 0 0 Z " fill="#D74606" transform="translate(315,248)"/>
<path d="M0 0 C0.66 0 1.32 0 2 0 C2.31248845 5.20814086 2.04636522 8.67612679 -1 13 C-3.30261445 14.36110098 -5.44276659 15.13150563 -8 16 C-8 14.68 -8 13.36 -8 12 C-7.01 11.67 -6.02 11.34 -5 11 C-3.79956095 9.24316603 -3.79956095 9.24316603 -2.875 7.125 C-2.37613281 6.07699219 -2.37613281 6.07699219 -1.8671875 5.0078125 C-0.90629312 2.86196217 -0.90629312 2.86196217 0 0 Z " fill="#F06202" transform="translate(319,235)"/>
<path d="M0 0 C2 1.75 2 1.75 4 4 C4 5.32 4 6.64 4 8 C3.4225 8.04125 2.845 8.0825 2.25 8.125 C-1.13312465 9.44065958 -2.19222685 11.96552364 -4 15 C-5.32830615 11.01508155 -4.23204404 9.59951452 -2.5625 5.8125 C-2.08941406 4.72582031 -1.61632812 3.63914063 -1.12890625 2.51953125 C-0.75636719 1.68808594 -0.38382812 0.85664063 0 0 Z " fill="#F5CE4E" transform="translate(302,192)"/>
<path d="M0 0 C0.78890625 0.00193359 1.5778125 0.00386719 2.390625 0.00585938 C3.62039062 0.02422852 3.62039062 0.02422852 4.875 0.04296875 C6.10476562 0.04393555 6.10476562 0.04393555 7.359375 0.04492188 C10.85444449 0.07062092 13.52759849 0.11466825 16.875 1.23046875 C16.875 1.89046875 16.875 2.55046875 16.875 3.23046875 C8.82141862 3.37572372 0.89624152 2.94460154 -7.125 2.23046875 C-4.06185161 0.18836982 -3.4475707 -0.01969378 0 0 Z " fill="#EEEEEE" transform="translate(229.125,149.76953125)"/>
<path d="M0 0 C1.62789352 0.03792583 3.25428742 0.15512646 4.875 0.3125 C6.20144531 0.43044922 6.20144531 0.43044922 7.5546875 0.55078125 C10 1 10 1 13 3 C0.79 3 -11.42 3 -24 3 C-24 2.67 -24 2.34 -24 2 C-23.30849854 1.97494385 -22.61699707 1.9498877 -21.90454102 1.92407227 C-18.79032134 1.80847839 -15.67643211 1.68558758 -12.5625 1.5625 C-10.92958008 1.50352539 -10.92958008 1.50352539 -9.26367188 1.44335938 C-8.22919922 1.40146484 -7.19472656 1.35957031 -6.12890625 1.31640625 C-5.17056885 1.27974854 -4.21223145 1.24309082 -3.22485352 1.20532227 C-1.02861075 1.24165576 -1.02861075 1.24165576 0 0 Z " fill="#313A4E" transform="translate(348,355)"/>
<path d="M0 0 C0.33 0 0.66 0 1 0 C0.43234802 7.23756276 -1.23712928 14.27383888 -4 21 C-4.99 21.66 -5.98 22.32 -7 23 C-6.48334032 17.14016367 -5.24718923 12.39106117 -2.9375 7 C-2.65583984 6.32066406 -2.37417969 5.64132813 -2.08398438 4.94140625 C-1.39808689 3.29060213 -0.70030171 1.64474531 0 0 Z " fill="#E8E4DB" transform="translate(255,74)"/>
<path d="M0 0 C4.77576339 0.4682121 8.04476345 1.24331998 12 4 C11.67 5.32 11.34 6.64 11 8 C7.37 6.02 3.74 4.04 0 2 C0 1.34 0 0.68 0 0 Z " fill="#0B1533" transform="translate(312,139)"/>
<path d="M0 0 C-0.33 1.98 -0.66 3.96 -1 6 C-3.64 6.33 -6.28 6.66 -9 7 C-8.34 6.67 -7.68 6.34 -7 6 C-7 4.68 -7 3.36 -7 2 C-7.99 1.67 -8.98 1.34 -10 1 C-6.21812119 -0.83691257 -4.05431692 -1.15837626 0 0 Z " fill="#EC8306" transform="translate(223,135)"/>
<path d="M0 0 C0.33 1.32 0.66 2.64 1 4 C-3.26041226 7.76354036 -7.51848911 11.49881962 -12 15 C-12.66 14.67 -13.32 14.34 -14 14 C-9.38 9.38 -4.76 4.76 0 0 Z " fill="#1B243A" transform="translate(309,72)"/>
<path d="M0 0 C0.33 0 0.66 0 1 0 C0.69343615 6.62177926 -0.74288723 11.22125154 -4 17 C-4.66 17 -5.32 17 -6 17 C-6.33 17.99 -6.66 18.98 -7 20 C-7.33 19.34 -7.66 18.68 -8 18 C-6.94284618 15.64355098 -5.83837249 13.39891563 -4.625 11.125 C-1.71672386 5.79161441 -1.71672386 5.79161441 0 0 Z " fill="#EBEBE9" transform="translate(249,93)"/>
<path d="M0 0 C0.33 0 0.66 0 1 0 C1.4375 2.125 1.4375 2.125 1 5 C-2.2913673 8.80273793 -6.1669444 11.5354377 -11 13 C-10.62488281 12.56429687 -10.24976563 12.12859375 -9.86328125 11.6796875 C-9.35152344 11.08414063 -8.83976562 10.48859375 -8.3125 9.875 C-7.76851563 9.24207031 -7.22453125 8.60914063 -6.6640625 7.95703125 C-5.14955629 6.17588663 -3.66581794 4.37365561 -2.1875 2.5625 C-1.465625 1.716875 -0.74375 0.87125 0 0 Z " fill="#F5C239" transform="translate(284,183)"/>
<path d="M0 0 C0.66 0 1.32 0 2 0 C3.2890625 1.6796875 3.2890625 1.6796875 4.625 3.875 C5.29402344 4.95394531 5.29402344 4.95394531 5.9765625 6.0546875 C7 8 7 8 7 10 C7.66 10.33 8.32 10.66 9 11 C7.35 11 5.7 11 4 11 C0 4.5 0 4.5 0 0 Z " fill="#F27703" transform="translate(203,123)"/>
<path d="M0 0 C1.98 0 3.96 0 6 0 C6 1.98 6 3.96 6 6 C4.02 6 2.04 6 0 6 C0 4.02 0 2.04 0 0 Z " fill="#F8E4D9" transform="translate(229,433)"/>
<path d="M0 0 C5.19209404 -0.21192221 9.126739 0.4087311 14 2 C13.67 2.66 13.34 3.32 13 4 C11.3954444 3.85851011 9.79136233 3.71164314 8.1875 3.5625 C7.29417969 3.48128906 6.40085937 3.40007812 5.48046875 3.31640625 C3 3 3 3 0 2 C0 1.34 0 0.68 0 0 Z " fill="#141735" transform="translate(278,129)"/>
<path d="M0 0 C2.3125 -0.3125 2.3125 -0.3125 5 0 C6.8125 2.5 6.8125 2.5 8 5 C7.01 5.99 6.02 6.98 5 8 C4.01 7.67 3.02 7.34 2 7 C2.66 7 3.32 7 4 7 C2.02 3.535 2.02 3.535 0 0 Z " fill="#E85C02" transform="translate(195,130)"/>
<path d="M0 0 C2.875 -0.125 2.875 -0.125 6 0 C6.66 0.66 7.32 1.32 8 2 C7.34 2 6.68 2 6 2 C6 2.66 6 3.32 6 4 C6.99 4.33 7.98 4.66 9 5 C6.36 5 3.72 5 1 5 C0.67 3.35 0.34 1.7 0 0 Z " fill="#03122E" transform="translate(236,145)"/>
<path d="M0 0 C1.32 0.66 2.64 1.32 4 2 C3.2575 2.8353125 3.2575 2.8353125 2.5 3.6875 C0.72482741 6.4242244 0.75387513 7.80037672 1 11 C1 11.99 1 12.98 1 14 C-0.5625 12.4375 -0.5625 12.4375 -2 10 C-1.748267 6.41280475 -1.1355927 3.40677809 0 0 Z " fill="#DDDCD8" transform="translate(207,90)"/>
<path d="M0 0 C2.5 1 2.5 1 4 2 C4 2.66 4 3.32 4 4 C-3.425 3.01 -3.425 3.01 -11 2 C-7.29598872 -0.46934085 -4.29412135 -0.44928433 0 0 Z " fill="#E26205" transform="translate(249,143)"/>
<path d="M0 0 C2.97 0.33 5.94 0.66 9 1 C9.33 1.99 9.66 2.98 10 4 C6.86650268 5.04449911 6.01031744 4.93423645 3 4 C3 3.34 3 2.68 3 2 C2.01 2 1.02 2 0 2 C0 1.34 0 0.68 0 0 Z " fill="#F15901" transform="translate(288,127)"/>
<path d="M0 0 C2.64 0.66 5.28 1.32 8 2 C8 2.66 8 3.32 8 4 C5.1875 4.625 5.1875 4.625 2 5 C1.01 4.34 0.02 3.68 -1 3 C-0.67 2.01 -0.34 1.02 0 0 Z " fill="#F77702" transform="translate(188,123)"/>
<path d="M0 0 C0.33 0.99 0.66 1.98 1 3 C-0.62415057 5.51005088 -1.71933982 7.1858385 -4 9 C-7.3125 9.375 -7.3125 9.375 -10 9 C-10 8.34 -10 7.68 -10 7 C-9.0925 6.773125 -8.185 6.54625 -7.25 6.3125 C-3.55111676 4.81872023 -2.22094342 3.24599423 0 0 Z " fill="#FBF9F3" transform="translate(243,110)"/>
<path d="M0 0 C2.64 0.33 5.28 0.66 8 1 C8.33 1.99 8.66 2.98 9 4 C8.67 4.66 8.34 5.32 8 6 C4.63408134 4.55746343 2.48952921 2.66735273 0 0 Z " fill="#F7C035" transform="translate(274,145)"/>
<path d="M0 0 C0.66 1.32 1.32 2.64 2 4 C-0.31 5.98 -2.62 7.96 -5 10 C-3.66511872 6.40608886 -2.03977277 3.24509304 0 0 Z " fill="#E54805" transform="translate(309,254)"/>
<path d="M0 0 C0 0.99 0 1.98 0 3 C-2.64 3.33 -5.28 3.66 -8 4 C-8 3.01 -8 2.02 -8 1 C-2.25 -1.125 -2.25 -1.125 0 0 Z " fill="#1E1C35" transform="translate(216,133)"/>
<path d="M0 0 C1.32 1.32 2.64 2.64 4 4 C3.01 5.485 3.01 5.485 2 7 C0.68 6.34 -0.64 5.68 -2 5 C-1.34 3.35 -0.68 1.7 0 0 Z " fill="#EDCC6B" transform="translate(302,192)"/>
<path d="M0 0 C2.97 0.495 2.97 0.495 6 1 C5.01 2.485 5.01 2.485 4 4 C0.7 3.67 -2.6 3.34 -6 3 C-6 2.67 -6 2.34 -6 2 C-4.02 2 -2.04 2 0 2 C0 1.34 0 0.68 0 0 Z " fill="#F0E0CF" transform="translate(246,151)"/>
<path d="M0 0 C3 2 3 2 3.6875 5.125 C3.790625 6.07375 3.89375 7.0225 4 8 C3.01 8 2.02 8 1 8 C-1.125 3.375 -1.125 3.375 0 0 Z " fill="#F77702" transform="translate(184,140)"/>
<path d="M0 0 C2.9375 0.8125 2.9375 0.8125 6 2 C6.33 2.99 6.66 3.98 7 5 C3.31245243 4.50168276 1.39509338 3.89932357 -1 1 C-0.67 0.67 -0.34 0.34 0 0 Z " fill="#FBF7E8" transform="translate(262,157)"/>
<path d="M0 0 C1.3921875 0.3403125 1.3921875 0.3403125 2.8125 0.6875 C1.8225 2.1725 1.8225 2.1725 0.8125 3.6875 C-1.4975 3.3575 -3.8075 3.0275 -6.1875 2.6875 C-4.14987265 -0.14253799 -3.59070275 -0.35202968 0 0 Z " fill="#2A202C" transform="translate(295.1875,131.3125)"/>
<path d="M0 0 C1.32 0 2.64 0 4 0 C4.33 1.65 4.66 3.3 5 5 C4.01 5.66 3.02 6.32 2 7 C0.5393715 4.35261084 0 3.10551666 0 0 Z " fill="#F59D25" transform="translate(181,136)"/>
<path d="M0 0 C-2.6855594 2.6855594 -5.37621328 3.06049974 -9 4 C-9 3.01 -9 2.02 -9 1 C-5.8035914 -0.06546953 -3.34252724 -0.07427838 0 0 Z " fill="#1B2338" transform="translate(357,437)"/>
<path d="M0 0 C0.99 0 1.98 0 3 0 C2.42655063 2.86724686 2.1385485 3.8614515 0 6 C-0.99 5.67 -1.98 5.34 -3 5 C-1.6875 2.5 -1.6875 2.5 0 0 Z " fill="#FB6700" transform="translate(291,108)"/>
<path d="M0 0 C1.5 1.375 1.5 1.375 3 3 C3 3.66 3 4.32 3 5 C2.34 5 1.68 5 1 5 C1 5.66 1 6.32 1 7 C0.01 6.67 -0.98 6.34 -2 6 C-1.34 6 -0.68 6 0 6 C0 4.68 0 3.36 0 2 C-0.99 1.67 -1.98 1.34 -3 1 C-2.01 0.67 -1.02 0.34 0 0 Z " fill="#FB8002" transform="translate(216,135)"/>
</svg>
